HIERARCHY
ROOT Hips
{
	OFFSET 0.000000 0.000000 0.000000
	CHANNELS 6 Xposition Yposition Zposition Zrotation Yrotation Xrotation 
	JOINT LHipJoint
	{
		OFFSET 0.000000 0.000000 0.000000
		CHANNELS 3 Zrotation Yrotation Xrotation
		JOINT LeftUpLeg
		{
			OFFSET 1.363060 -1.794630 0.839290
			CHANNELS 3 Zrotation Yrotation Xrotation
			JOINT LeftLeg
			{
				OFFSET 2.448110 -6.726130 0.000000
				CHANNELS 3 Zrotation Yrotation Xrotation
				JOINT LeftFoot
				{
					OFFSET 2.562200 -7.039590 0.000000
					CHANNELS 3 Zrotation Yrotation Xrotation
					JOINT LeftToeBase
					{
						OFFSET 0.157640 -0.433110 2.322550
						CHANNELS 3 Zrotation Yrotation Xrotation
						End Site
						{
							OFFSET 0.000000 0.000000 0.000000
						}
					}
				}
			}
		}
	}
	JOINT RHipJoint
	{
		OFFSET 0.000000 0.000000 0.000000
		CHANNELS 3 Zrotation Yrotation Xrotation
		JOINT RightUpLeg
		{
			OFFSET -1.305520 -1.794630 0.839290
			CHANNELS 3 Zrotation Yrotation Xrotation
			JOINT RightLeg
			{
				OFFSET -2.542530 -6.985550 0.000000
				CHANNELS 3 Zrotation Yrotation Xrotation
				JOINT RightFoot
				{
					OFFSET -2.568260 -7.056230 0.000000
					CHANNELS 3 Zrotation Yrotation Xrotation
					JOINT RightToeBase
					{
						OFFSET -0.164730 -0.452590 2.363150
						CHANNELS 3 Zrotation Yrotation Xrotation
						End Site
						{
							OFFSET 0.000000 0.000000 0.000000
						}
					}
				}
			}
		}
	}
	JOINT LowerBack
	{
		OFFSET 0.000000 0.000000 0.000000
		CHANNELS 3 Zrotation Yrotation Xrotation
		JOINT Spine
		{
			OFFSET 0.028270 2.035590 -0.193380
			CHANNELS 3 Zrotation Yrotation Xrotation
			JOINT Spine1
			{
				OFFSET 0.056720 2.048850 -0.042750
				CHANNELS 3 Zrotation Yrotation Xrotation
				JOINT Neck
				{
					OFFSET 0.000000 0.000000 0.000000
					CHANNELS 3 Zrotation Yrotation Xrotation
					JOINT Neck1
					{
						OFFSET -0.054170 1.746240 0.172020
						CHANNELS 3 Zrotation Yrotation Xrotation
						JOINT Head
						{
							OFFSET 0.104070 1.761360 -0.123970
							CHANNELS 3 Zrotation Yrotation Xrotation
							End Site
							{
								OFFSET 0.000000 0.000000 0.000000
							}
						}
					}
				}
				JOINT LeftShoulder
				{
					OFFSET 0.000000 0.000000 0.000000
					CHANNELS 3 Zrotation Yrotation Xrotation
					JOINT LeftArm
					{
						OFFSET 3.362410 1.200890 -0.311210
						CHANNELS 3 Zrotation Yrotation Xrotation
						JOINT LeftForeArm
						{
							OFFSET 4.983000 -0.000000 -0.000000
							CHANNELS 3 Zrotation Yrotation Xrotation
							JOINT LeftHand
							{
								OFFSET 3.483560 -0.000000 -0.000000
								CHANNELS 3 Zrotation Yrotation Xrotation
								JOINT LeftFingerBase
								{
									OFFSET 0.000000 0.000000 0.000000
									CHANNELS 3 Zrotation Yrotation Xrotation
									JOINT LeftHandIndex1
									{
										OFFSET 0.715260 -0.000000 -0.000000
										CHANNELS 3 Zrotation Yrotation Xrotation
										End Site
										{
											OFFSET 0.000000 0.000000 0.000000
										}
									}
								}
								JOINT LThumb
								{
									OFFSET 0.000000 0.000000 0.000000
									CHANNELS 3 Zrotation Yrotation Xrotation
									End Site
									{
										OFFSET 0.000000 0.000000 0.000000
									}
								}
							}
						}
					}
				}
				JOINT RightShoulder
				{
					OFFSET 0.000000 0.000000 0.000000
					CHANNELS 3 Zrotation Yrotation Xrotation
					JOINT RightArm
					{
						OFFSET -3.136600 1.374050 -0.404650
						CHANNELS 3 Zrotation Yrotation Xrotation
						JOINT RightForeArm
						{
							OFFSET -5.241900 -0.000000 -0.000000
							CHANNELS 3 Zrotation Yrotation Xrotation
							JOINT RightHand
							{
								OFFSET -3.444170 -0.000000 -0.000000
								CHANNELS 3 Zrotation Yrotation Xrotation
								JOINT RightFingerBase
								{
									OFFSET 0.000000 0.000000 0.000000
									CHANNELS 3 Zrotation Yrotation Xrotation
									JOINT RightHandIndex1
									{
										OFFSET -0.622530 -0.000000 -0.000000
										CHANNELS 3 Zrotation Yrotation Xrotation
										End Site
										{
											OFFSET 0.000000 0.000000 0.000000
										}
									}
								}
								JOINT RThumb
								{
									OFFSET 0.000000 0.000000 0.000000
									CHANNELS 3 Zrotation Yrotation Xrotation
									End Site
									{
										OFFSET 0.000000 0.000000 0.000000
									}
								}
							}
						}
					}
				}
			}
		}
	}
}
MOTION
Frames: 8
Frame Time: 0.008333
1.266666 17.909583 -1.949384 0.856807 1.958690 1.285762 -0.999054 6.222670 5.698634 -21.504475 -4.573537 -4.493238 -0.270716 4.666217 20.738720 0.816752 -2.529563 -2.280682 0.053286 -1.433872 -3.944419 0.488510 -4.240369 2.898430 17.606665 9.018493 -34.535870 -4.632874 -12.596570 40.324930 2.983944 -12.017545 4.463237 -0.008132 0.490403 -1.347708 -3.134061 -2.062860 5.941715 4.071319 -2.807685 4.612414 3.777120 -1.418083 -9.144189 -5.487601 -4.811093 -16.503306 4.340233 -5.632770 19.320637 0.142774 -2.239189 9.290277 -7.082447 2.738581 -1.129679 -77.265833 -4.229103 28.882614 15.409297 -25.342495 -3.535522 -0.213579 -0.674480 -12.841355 30.951379 21.511419 12.905257 -7.125000 0.000000 0.000000 2.652058 55.417710 0.672086 11.073461 -2.115902 -2.599855 75.241231 -2.972814 4.486005 -10.204848 21.745681 -2.289085 1.040217 -0.327792 5.670789 -18.819727 21.459507 -7.565443 7.125000 0.000000 0.000000 5.582144 -7.286806 4.855327
1.262984 17.908244 -1.853369 0.875212 2.005635 1.438152 -1.032480 6.229054 5.728213 -21.430593 -4.668114 -4.285972 -0.330419 4.550255 20.411867 0.806979 -2.564510 -1.994422 0.023459 -0.932017 -2.562256 0.570482 -4.210408 2.847540 17.531986 9.072089 -34.588465 -4.195505 -12.162669 38.561831 3.161968 -12.622723 4.985211 -0.001797 0.100009 -0.274923 -3.199053 -2.095830 5.836144 4.101518 -2.851410 4.593563 3.823962 -1.443969 -9.085839 -5.473672 -4.840816 -16.582753 4.381052 -5.676201 19.299885 0.146923 -2.253766 9.298631 -7.082081 2.733404 -1.126799 -77.078802 -4.557771 28.984519 15.421583 -25.362737 -3.546165 -0.219756 -0.660148 -12.957679 31.098107 20.473678 12.410971 -7.125000 0.000000 0.000000 3.010774 54.274729 0.682459 11.072082 -2.116328 -2.600987 75.256535 -3.010810 4.402333 -10.177485 21.698232 -2.278409 1.051275 -0.297039 5.597462 -19.273275 20.848004 -7.537129 7.125000 0.000000 0.000000 5.239631 -7.886218 4.492182
1.260461 17.914539 -1.755516 0.979173 2.081752 1.603677 -1.056665 6.256444 5.783151 -21.451194 -4.565023 -3.825431 -0.383294 4.412197 20.065343 0.816430 -2.619862 -2.006259 0.020342 -0.908395 -2.496901 0.653054 -4.189997 2.793305 17.374176 9.046408 -34.568287 -3.758951 -11.701920 36.741340 3.312566 -13.172599 5.675143 -0.001406 0.147118 -0.404307 -3.326075 -2.135740 5.699297 4.105594 -2.909387 4.574405 3.888055 -1.477006 -9.014642 -5.494315 -4.847300 -16.654708 4.449938 -5.682562 19.207810 0.168746 -2.253000 9.285977 -7.079119 2.725806 -1.123723 -76.943935 -4.782010 29.003045 15.510560 -25.487003 -3.591453 -0.224677 -0.644966 -12.920945 31.148416 19.474306 11.879650 -7.125000 0.000000 0.000000 3.226535 53.147132 0.643787 11.070490 -2.119613 -2.607288 75.257188 -3.100024 4.429576 -10.204261 21.741607 -2.293295 1.055001 -0.266638 5.478186 -19.511638 20.264289 -7.422215 7.125000 0.000000 0.000000 5.041037 -8.488200 4.259821
1.258397 17.923855 -1.656934 1.116998 2.169416 1.774402 -1.077192 6.292150 5.848127 -21.509194 -4.383689 -3.264635 -0.433466 4.265393 19.711032 0.833492 -2.683291 -2.136093 0.027799 -1.074072 -2.952781 0.735863 -4.173365 2.737746 17.183460 8.989346 -34.519303 -3.322720 -11.230545 34.898131 3.452307 -13.700584 6.431558 -0.003368 0.367405 -1.009549 -3.477650 -2.178397 5.550069 4.099330 -2.973004 4.555125 3.958977 -1.512874 -8.938359 -5.528643 -4.844584 -16.723697 4.529933 -5.674250 19.087502 0.197564 -2.246159 9.265008 -7.075130 2.717250 -1.120569 -76.829717 -4.964912 28.988568 15.629893 -25.652446 -3.650454 -0.229103 -0.629447 -12.823626 31.160558 18.490123 11.333670 -7.125000 0.000000 0.000000 3.385709 52.025625 0.585701 11.068814 -2.124028 -2.615634 75.252041 -3.209511 4.500723 -10.252466 21.820933 -2.318298 1.055826 -0.236376 5.340721 -19.664823 19.691573 -7.273021 7.125000 0.000000 0.000000 4.899412 -9.091200 4.079229
1.253991 17.926875 -1.558509 1.219815 2.165082 1.940754 -1.107546 6.312050 5.893061 -21.548747 -4.251013 -2.901137 -0.497861 4.107324 19.297264 0.791682 -2.559297 -2.045420 0.025737 -1.033945 -2.842291 0.830096 -4.156211 2.681603 16.998139 9.088662 -34.419006 -2.920781 -10.737238 33.089127 3.591328 -14.243362 7.171378 -0.006167 0.495275 -1.360869 -3.668056 -2.222912 5.412097 4.166788 -3.042089 4.478235 4.092920 -1.546286 -8.893963 -5.592323 -4.779570 -16.788334 4.555253 -5.565033 19.116903 0.229992 -2.196171 9.286456 -7.078091 2.714182 -1.115392 -76.748870 -5.033038 28.951884 15.708085 -25.755461 -3.693072 -0.234564 -0.607458 -12.920906 31.096712 16.907899 10.404845 -7.125000 0.000000 0.000000 3.501473 50.195018 0.444509 11.070274 -2.126752 -2.614975 75.169402 -3.281352 4.311596 -10.144792 21.657567 -2.277293 1.058110 -0.231652 5.474408 -19.705489 19.488940 -7.215667 7.125000 0.000000 0.000000 4.856584 -9.304294 4.022435
1.249266 17.928966 -1.459987 1.321992 2.162295 2.095195 -1.138430 6.330890 5.936182 -21.584802 -4.117588 -2.555152 -0.561224 3.951979 18.889613 0.750936 -2.441742 -1.942058 0.024237 -1.003292 -2.757901 0.925770 -4.140048 2.625736 16.807873 9.197324 -34.301209 -2.525204 -10.238985 31.283996 3.732061 -14.791483 7.892247 -0.008700 0.601814 -1.653597 -3.858818 -2.265355 5.289611 4.232183 -3.108794 4.390153 4.226408 -1.578040 -8.864360 -5.652422 -4.713319 -16.832306 4.572109 -5.456328 19.177887 0.259917 -2.146222 9.313442 -7.081247 2.711442 -1.109777 -76.664151 -5.091855 28.932552 15.774565 -25.842900 -3.729732 -0.239798 -0.587682 -13.038458 31.061238 15.457327 9.560388 -7.125000 0.000000 0.000000 3.626697 48.519656 0.314656 11.072552 -2.129674 -2.614057 75.089189 -3.368748 4.092837 -10.024604 21.474590 -2.230542 1.060881 -0.230980 5.606852 -19.726343 19.369568 -7.181454 7.125000 0.000000 0.000000 4.832334 -9.429248 3.990001
1.243687 17.928353 -1.360848 1.434885 2.206085 2.183533 -1.168299 6.350171 5.977191 -21.608492 -3.959921 -2.228026 -0.612872 3.816783 18.541233 0.740419 -2.437808 -1.856869 0.029844 -1.111109 -3.054720 1.024979 -4.129743 2.571675 16.587209 9.295087 -34.104720 -2.151811 -9.721544 29.486896 3.882848 -15.363983 8.511903 -0.009373 0.624690 -1.716561 -4.035668 -2.295233 5.250780 4.255563 -3.159690 4.261918 4.331434 -1.601357 -8.905996 -5.680068 -4.665580 -16.760284 4.563168 -5.391956 19.357462 0.274102 -2.114208 9.354595 -7.082665 2.708310 -1.102503 -76.543668 -5.144721 29.021242 15.791166 -25.867178 -3.739155 -0.243316 -0.583179 -13.191691 31.218673 15.002602 9.353950 -7.125000 0.000000 0.000000 3.823661 48.020212 0.283538 11.078210 -2.134424 -2.615355 75.054607 -3.560262 3.811996 -9.897064 21.279422 -2.178125 1.065825 -0.242916 5.620930 -19.680449 19.572902 -7.241446 7.125000 0.000000 0.000000 4.873431 -9.211821 4.045620
1.237924 17.926740 -1.261158 1.520682 2.252932 2.265233 -1.197350 6.373839 6.021237 -21.596269 -3.827493 -1.883832 -0.667738 3.676588 18.174948 0.740643 -2.476138 -1.762899 0.033872 -1.187680 -3.265511 1.122734 -4.122098 2.520685 16.386890 9.414099 -33.889423 -1.789439 -9.200947 27.725635 4.035756 -15.892774 8.928815 -0.008508 0.586223 -1.610894 -4.160671 -2.315391 5.207912 4.264909 -3.192351 4.160724 4.396422 -1.618597 -8.934099 -5.696039 -4.653528 -16.707093 4.578237 -5.381551 19.490500 0.285519 -2.104807 9.385764 -7.082024 2.704808 -1.096613 -76.400896 -5.244770 29.167507 15.816647 -25.905241 -3.751605 -0.244516 -0.582489 -13.320275 31.349829 14.869763 9.325715 -7.125000 0.000000 0.000000 3.966724 47.888923 0.283503 11.081606 -2.138301 -2.618335 75.056692 -3.743495 3.595910 -9.821099 21.165857 -2.146598 1.066693 -0.260301 5.558447 -19.493273 19.930386 -7.299633 7.125000 0.000000 0.000000 5.019581 -8.846675 4.206660
